# Blender v2.78 (sub 0) OBJ File: ''
# www.blender.org
mtllib sail_boat.mtl
o sail_boat
v 0.550286 -0.452626 -0.710929
v -2.449714 -0.452626 -0.710929
v -2.449714 -0.202626 -0.710929
v 0.550286 -0.202626 -0.710929
v -2.449714 -0.452626 1.289071
v 0.550286 -0.452626 1.289071
v 0.550286 -0.202626 1.289071
v -2.449714 -0.202626 1.289071
v 0.550286 -0.202626 -0.835929
v -2.449714 -0.202626 -0.835929
v -2.449714 0.172374 -0.835929
v 0.550286 0.172374 -0.835929
v -2.449714 -0.202626 -0.710929
v 0.550286 -0.202626 -0.710929
v 0.550286 0.172374 -0.710929
v -2.449714 0.172374 -0.710929
v 0.550286 -0.202626 1.289071
v -2.449714 -0.202626 1.289071
v -2.449714 0.172374 1.289071
v 0.550286 0.172374 1.289071
v -2.449714 -0.202626 1.414071
v 0.550286 -0.202626 1.414071
v 0.550286 0.172374 1.414071
v -2.449714 0.172374 1.414071
v 1.050286 -0.452626 -0.585929
v 0.550286 -0.452626 -0.585929
v 0.550286 -0.202626 -0.585929
v 1.050286 -0.202626 -0.585929
v 0.550286 -0.452626 1.164071
v 1.050286 -0.452626 1.164071
v 1.050286 -0.202626 1.164071
v 0.550286 -0.202626 1.164071
v 1.550286 -0.452626 -0.460929
v 1.050286 -0.452626 -0.460929
v 1.050286 -0.202626 -0.460929
v 1.550286 -0.202626 -0.460929
v 1.050286 -0.452626 1.039071
v 1.550286 -0.452626 1.039071
v 1.550286 -0.202626 1.039071
v 1.050286 -0.202626 1.039071
v 1.050286 -0.202626 -0.710929
v 0.550286 -0.202626 -0.710929
v 0.550286 0.172374 -0.710929
v 1.050286 0.172374 -0.710929
v 0.550286 -0.202626 -0.585929
v 1.050286 -0.202626 -0.585929
v 1.050286 0.172374 -0.585929
v 0.550286 0.172374 -0.585929
v 1.550286 -0.202626 -0.585929
v 1.050286 -0.202626 -0.585929
v 1.050286 0.172374 -0.585929
v 1.550286 0.172374 -0.585929
v 1.050286 -0.202626 -0.460929
v 1.550286 -0.202626 -0.460929
v 1.550286 0.172374 -0.460929
v 1.050286 0.172374 -0.460929
v 1.050286 -0.202626 1.164071
v 0.550286 -0.202626 1.164071
v 0.550286 0.172374 1.164071
v 1.050286 0.172374 1.164071
v 0.550286 -0.202626 1.289071
v 1.050286 -0.202626 1.289071
v 1.050286 0.172374 1.289071
v 0.550286 0.172374 1.289071
v 1.550286 -0.202626 1.039071
v 1.050286 -0.202626 1.039071
v 1.050286 0.172374 1.039071
v 1.550286 0.172374 1.039071
v 1.050286 -0.202626 1.164071
v 1.550286 -0.202626 1.164071
v 1.550286 0.172374 1.164071
v 1.050286 0.172374 1.164071
v 1.925286 -0.202626 -0.335929
v 1.800286 -0.202626 -0.335929
v 1.800286 0.172374 -0.335929
v 1.925286 0.172374 -0.335929
v 1.800286 -0.202626 0.914071
v 1.925286 -0.202626 0.914071
v 1.925286 0.172374 0.914071
v 1.800286 0.172374 0.914071
v 2.112786 -0.108876 0.195321
v 1.925286 -0.108876 0.195321
v 1.925286 0.328624 0.195321
v 2.112786 0.328624 0.195321
v 1.925286 -0.108876 0.382821
v 2.112786 -0.108876 0.382821
v 2.112786 0.328624 0.382821
v 1.925286 0.328624 0.382821
v 1.800286 -0.452626 -0.335929
v 1.550286 -0.452626 -0.335929
v 1.550286 -0.202626 -0.335929
v 1.800286 -0.202626 -0.335929
v 1.550286 -0.452626 0.914071
v 1.800286 -0.452626 0.914071
v 1.800286 -0.202626 0.914071
v 1.550286 -0.202626 0.914071
v 2.237786 0.328624 0.195321
v 1.925286 0.328624 0.195321
v 1.925286 0.578624 0.195321
v 2.237786 0.578624 0.195321
v 1.925286 0.328624 0.382821
v 2.237786 0.328624 0.382821
v 2.237786 0.578624 0.382821
v 1.925286 0.578624 0.382821
v 1.800286 -0.202626 0.914071
v 1.550286 -0.202626 0.914071
v 1.550286 0.172374 0.914071
v 1.800286 0.172374 0.914071
v 1.550286 -0.202626 1.039071
v 1.800286 -0.202626 1.039071
v 1.800286 0.172374 1.039071
v 1.550286 0.172374 1.039071
v 1.800286 -0.202626 -0.460929
v 1.550286 -0.202626 -0.460929
v 1.550286 0.172374 -0.460929
v 1.800286 0.172374 -0.460929
v 1.550286 -0.202626 -0.335929
v 1.800286 -0.202626 -0.335929
v 1.800286 0.172374 -0.335929
v 1.550286 0.172374 -0.335929
v -2.449714 -0.452626 -0.585929
v -2.949714 -0.452626 -0.585929
v -2.949714 -0.077626 -0.585929
v -2.449714 -0.077626 -0.585929
v -2.949714 -0.452626 1.164071
v -2.449714 -0.452626 1.164071
v -2.449714 -0.077626 1.164071
v -2.949714 -0.077626 1.164071
v -2.449714 -0.202626 -0.710929
v -2.949714 -0.202626 -0.710929
v -2.949714 0.172374 -0.710929
v -2.449714 0.172374 -0.710929
v -2.949714 -0.202626 -0.585929
v -2.449714 -0.202626 -0.585929
v -2.449714 0.172374 -0.585929
v -2.949714 0.172374 -0.585929
v -2.449714 -0.202626 1.164071
v -2.949714 -0.202626 1.164071
v -2.949714 0.172374 1.164071
v -2.449714 0.172374 1.164071
v -2.949714 -0.202626 1.289071
v -2.449714 -0.202626 1.289071
v -2.449714 0.172374 1.289071
v -2.949714 0.172374 1.289071
v -2.949714 -0.202626 -0.585929
v -3.074714 -0.202626 -0.585929
v -3.074714 0.172374 -0.585929
v -2.949714 0.172374 -0.585929
v -3.074714 -0.202626 1.164071
v -2.949714 -0.202626 1.164071
v -2.949714 0.172374 1.164071
v -3.074714 0.172374 1.164071
v -0.824714 -0.202626 0.164071
v -1.074714 -0.202626 0.164071
v -1.074714 1.984874 0.164072
v -0.824714 1.984874 0.164072
v -1.074714 -0.202626 0.414071
v -0.824714 -0.202626 0.414071
v -0.824714 1.984874 0.414072
v -1.074714 1.984874 0.414072
v -0.887214 2.047374 0.226572
v -1.012214 2.047374 0.226572
v -1.012214 3.047374 0.226572
v -0.887214 3.047374 0.226572
v -1.012214 2.047374 0.351572
v -0.887214 2.047374 0.351572
v -0.887214 3.047374 0.351572
v -1.012214 3.047374 0.351572
v -0.824714 1.984874 0.226572
v -1.074714 1.984874 0.226572
v -1.074714 2.047374 0.226572
v -0.824714 2.047374 0.226572
v -1.074714 1.984874 0.351572
v -0.824714 1.984874 0.351572
v -0.824714 2.047374 0.351572
v -1.074714 2.047374 0.351572
v -0.887214 1.984874 0.164072
v -1.012214 1.984874 0.164072
v -1.012214 2.047374 0.164072
v -0.887214 2.047374 0.164072
v -1.012214 1.984874 0.414072
v -0.887214 1.984874 0.414072
v -0.887214 2.047374 0.414072
v -1.012214 2.047374 0.414072
v -0.824714 0.547374 -1.210929
v -0.887214 0.547374 -1.210929
v -0.887214 0.609874 -1.210929
v -0.824714 0.609874 -1.210929
v -0.887214 0.547374 1.789071
v -0.824714 0.547374 1.789071
v -0.824714 0.609874 1.789071
v -0.887214 0.609874 1.789071
v -0.762214 0.609874 -1.148429
v -0.824714 0.609874 -1.148429
v -0.824714 0.672374 -1.148429
v -0.762214 0.672374 -1.148429
v -0.824714 0.609874 1.726571
v -0.762214 0.609874 1.726571
v -0.762214 0.672374 1.726571
v -0.824714 0.672374 1.726571
v -0.699714 0.672374 -1.085929
v -0.762214 0.672374 -1.085929
v -0.762214 0.922374 -1.085929
v -0.699714 0.922374 -1.085929
v -0.762214 0.672374 1.664071
v -0.699714 0.672374 1.664071
v -0.699714 0.922374 1.664071
v -0.762214 0.922374 1.664071
v -0.699714 2.172374 -1.085928
v -0.762214 2.172374 -1.085928
v -0.762214 2.422374 -1.085928
v -0.699714 2.422374 -1.085928
v -0.762214 2.172374 1.664072
v -0.699714 2.172374 1.664072
v -0.699714 2.422374 1.664072
v -0.762214 2.422374 1.664072
v -0.637214 0.922374 -1.023429
v -0.699714 0.922374 -1.023429
v -0.699714 2.172374 -1.023428
v -0.637214 2.172374 -1.023428
v -0.699714 0.922374 1.601571
v -0.637214 0.922374 1.601571
v -0.637214 2.172374 1.601572
v -0.699714 2.172374 1.601572
v -0.762214 2.422374 -1.148428
v -0.824714 2.422374 -1.148428
v -0.824714 2.484874 -1.148428
v -0.762214 2.484874 -1.148428
v -0.824714 2.422374 1.726572
v -0.762214 2.422374 1.726572
v -0.762214 2.484874 1.726572
v -0.824714 2.484874 1.726572
v -0.824714 2.484874 -1.210928
v -0.887214 2.484874 -1.210928
v -0.887214 2.547374 -1.210928
v -0.824714 2.547374 -1.210928
v -0.887214 2.484874 1.789072
v -0.824714 2.484874 1.789072
v -0.824714 2.547374 1.789072
v -0.887214 2.547374 1.789072
vt 0.5000 0.8594
vt 0.6875 0.8594
vt 0.6875 0.8750
vt 0.5000 0.8750
vt 0.8125 0.8594
vt 1.0000 0.8594
vt 1.0000 0.8750
vt 0.8125 0.8750
vt 0.6875 1.0000
vt 0.5000 1.0000
vt 0.6875 0.8750
vt 0.8750 0.8750
vt 0.8750 1.0000
vt 0.6875 1.0000
vt 0.3750 0.8594
vt 0.3750 0.8750
vt 0.5312 0.5195
vt 0.7188 0.5195
vt 0.7188 0.5430
vt 0.5312 0.5430
vt 0.7266 0.5195
vt 0.9141 0.5195
vt 0.9141 0.5430
vt 0.7266 0.5430
vt 0.7188 0.5508
vt 0.5312 0.5508
vt 0.7188 0.5430
vt 0.9062 0.5430
vt 0.9062 0.5508
vt 0.7188 0.5508
vt 0.5234 0.5195
vt 0.5234 0.5430
vt 0.5312 0.5195
vt 0.7188 0.5195
vt 0.7188 0.5430
vt 0.5312 0.5430
vt 0.7266 0.5195
vt 0.9141 0.5195
vt 0.9141 0.5430
vt 0.7266 0.5430
vt 0.7188 0.5508
vt 0.5312 0.5508
vt 0.7188 0.5430
vt 0.9062 0.5430
vt 0.9062 0.5508
vt 0.7188 0.5508
vt 0.5234 0.5195
vt 0.5234 0.5430
vt 0.2852 0.5820
vt 0.3164 0.5820
vt 0.3164 0.5977
vt 0.2852 0.5977
vt 0.4258 0.5820
vt 0.4570 0.5820
vt 0.4570 0.5977
vt 0.4258 0.5977
vt 0.3164 0.7070
vt 0.2852 0.7070
vt 0.3164 0.5977
vt 0.3477 0.5977
vt 0.3477 0.7070
vt 0.3164 0.7070
vt 0.1758 0.5820
vt 0.1758 0.5977
vt 0.2695 0.7070
vt 0.3008 0.7070
vt 0.3008 0.7227
vt 0.2695 0.7227
vt 0.3945 0.7070
vt 0.4258 0.7070
vt 0.4258 0.7227
vt 0.3945 0.7227
vt 0.3008 0.8164
vt 0.2695 0.8164
vt 0.3008 0.7227
vt 0.3320 0.7227
vt 0.3320 0.8164
vt 0.3008 0.8164
vt 0.1758 0.7070
vt 0.1758 0.7227
vt 0.0078 0.9688
vt 0.0391 0.9688
vt 0.0391 0.9922
vt 0.0078 0.9922
vt 0.0469 0.9688
vt 0.0781 0.9688
vt 0.0781 0.9922
vt 0.0469 0.9922
vt 0.0391 1.0000
vt 0.0078 1.0000
vt 0.0391 0.9922
vt 0.0703 0.9922
vt 0.0703 1.0000
vt 0.0391 1.0000
vt 0.0000 0.9688
vt 0.0000 0.9922
vt 0.0078 0.9688
vt 0.0391 0.9688
vt 0.0391 0.9922
vt 0.0078 0.9922
vt 0.0469 0.9688
vt 0.0781 0.9688
vt 0.0781 0.9922
vt 0.0469 0.9922
vt 0.0391 1.0000
vt 0.0078 1.0000
vt 0.0391 0.9922
vt 0.0703 0.9922
vt 0.0703 1.0000
vt 0.0391 1.0000
vt 0.0000 0.9688
vt 0.0000 0.9922
vt 0.0078 0.9688
vt 0.0391 0.9688
vt 0.0391 0.9922
vt 0.0078 0.9922
vt 0.0469 0.9688
vt 0.0781 0.9688
vt 0.0781 0.9922
vt 0.0469 0.9922
vt 0.0391 1.0000
vt 0.0078 1.0000
vt 0.0391 0.9922
vt 0.0703 0.9922
vt 0.0703 1.0000
vt 0.0391 1.0000
vt 0.0000 0.9688
vt 0.0000 0.9922
vt 0.0078 0.9688
vt 0.0391 0.9688
vt 0.0391 0.9922
vt 0.0078 0.9922
vt 0.0469 0.9688
vt 0.0781 0.9688
vt 0.0781 0.9922
vt 0.0469 0.9922
vt 0.0391 1.0000
vt 0.0078 1.0000
vt 0.0391 0.9922
vt 0.0703 0.9922
vt 0.0703 1.0000
vt 0.0391 1.0000
vt 0.0000 0.9688
vt 0.0000 0.9922
vt 0.6016 0.5547
vt 0.6094 0.5547
vt 0.6094 0.5781
vt 0.6016 0.5781
vt 0.6875 0.5547
vt 0.6953 0.5547
vt 0.6953 0.5781
vt 0.6875 0.5781
vt 0.6094 0.6562
vt 0.6016 0.6562
vt 0.6094 0.5781
vt 0.6172 0.5781
vt 0.6172 0.6562
vt 0.6094 0.6562
vt 0.5234 0.5547
vt 0.5234 0.5781
vt 0.1406 0.9609
vt 0.1523 0.9609
vt 0.1523 0.9883
vt 0.1406 0.9883
vt 0.1641 0.9609
vt 0.1758 0.9609
vt 0.1758 0.9883
vt 0.1641 0.9883
vt 0.1523 1.0000
vt 0.1406 1.0000
vt 0.1523 0.9883
vt 0.1641 0.9883
vt 0.1641 1.0000
vt 0.1523 1.0000
vt 0.1289 0.9609
vt 0.1289 0.9883
vt 0.4180 0.7305
vt 0.4336 0.7305
vt 0.4336 0.7461
vt 0.4180 0.7461
vt 0.5117 0.7305
vt 0.5273 0.7305
vt 0.5273 0.7461
vt 0.5117 0.7461
vt 0.4336 0.8242
vt 0.4180 0.8242
vt 0.4336 0.7461
vt 0.4492 0.7461
vt 0.4492 0.8242
vt 0.4336 0.8242
vt 0.3398 0.7305
vt 0.3398 0.7461
vt 0.1250 0.9141
vt 0.1445 0.9141
vt 0.1445 0.9297
vt 0.1250 0.9297
vt 0.1562 0.9141
vt 0.1758 0.9141
vt 0.1758 0.9297
vt 0.1562 0.9297
vt 0.1445 0.9414
vt 0.1250 0.9414
vt 0.1445 0.9297
vt 0.1641 0.9297
vt 0.1641 0.9414
vt 0.1445 0.9414
vt 0.1133 0.9141
vt 0.1133 0.9297
vt 0.0586 0.9336
vt 0.0742 0.9336
vt 0.0742 0.9570
vt 0.0586 0.9570
vt 0.0820 0.9336
vt 0.0977 0.9336
vt 0.0977 0.9570
vt 0.0820 0.9570
vt 0.0742 0.9648
vt 0.0586 0.9648
vt 0.0742 0.9570
vt 0.0898 0.9570
vt 0.0898 0.9648
vt 0.0742 0.9648
vt 0.0508 0.9336
vt 0.0508 0.9570
vt 0.0586 0.9336
vt 0.0742 0.9336
vt 0.0742 0.9570
vt 0.0586 0.9570
vt 0.0820 0.9336
vt 0.0977 0.9336
vt 0.0977 0.9570
vt 0.0820 0.9570
vt 0.0742 0.9648
vt 0.0586 0.9648
vt 0.0742 0.9570
vt 0.0898 0.9570
vt 0.0898 0.9648
vt 0.0742 0.9648
vt 0.0508 0.9336
vt 0.0508 0.9570
vt 0.5391 0.6914
vt 0.5703 0.6914
vt 0.5703 0.7148
vt 0.5391 0.7148
vt 0.6797 0.6914
vt 0.7109 0.6914
vt 0.7109 0.7148
vt 0.6797 0.7148
vt 0.5703 0.8242
vt 0.5391 0.8242
vt 0.5703 0.7148
vt 0.6016 0.7148
vt 0.6016 0.8242
vt 0.5703 0.8242
vt 0.4297 0.6914
vt 0.4297 0.7148
vt 0.0078 0.9688
vt 0.0391 0.9688
vt 0.0391 0.9922
vt 0.0078 0.9922
vt 0.0469 0.9688
vt 0.0781 0.9688
vt 0.0781 0.9922
vt 0.0469 0.9922
vt 0.0391 1.0000
vt 0.0078 1.0000
vt 0.0391 0.9922
vt 0.0703 0.9922
vt 0.0703 1.0000
vt 0.0391 1.0000
vt 0.0000 0.9688
vt 0.0000 0.9922
vt 0.0078 0.9688
vt 0.0391 0.9688
vt 0.0391 0.9922
vt 0.0078 0.9922
vt 0.0469 0.9688
vt 0.0781 0.9688
vt 0.0781 0.9922
vt 0.0469 0.9922
vt 0.0391 1.0000
vt 0.0078 1.0000
vt 0.0391 0.9922
vt 0.0703 0.9922
vt 0.0703 1.0000
vt 0.0391 1.0000
vt 0.0000 0.9688
vt 0.0000 0.9922
vt 0.8398 0.6719
vt 0.8477 0.6719
vt 0.8477 0.6953
vt 0.8398 0.6953
vt 0.9570 0.6719
vt 0.9648 0.6719
vt 0.9648 0.6953
vt 0.9570 0.6953
vt 0.8477 0.8047
vt 0.8398 0.8047
vt 0.8477 0.6953
vt 0.8555 0.6953
vt 0.8555 0.8047
vt 0.8477 0.8047
vt 0.7305 0.6719
vt 0.7305 0.6953
vt 0.2070 0.8477
vt 0.2227 0.8477
vt 0.2227 0.9844
vt 0.2070 0.9844
vt 0.2383 0.8477
vt 0.2539 0.8477
vt 0.2539 0.9844
vt 0.2383 0.9844
vt 0.2227 1.0000
vt 0.2070 1.0000
vt 0.2227 0.9844
vt 0.2383 0.9844
vt 0.2383 1.0000
vt 0.2227 1.0000
vt 0.1914 0.8477
vt 0.1914 0.9844
vt 0.2656 0.9297
vt 0.2734 0.9297
vt 0.2734 0.9922
vt 0.2656 0.9922
vt 0.2812 0.9297
vt 0.2891 0.9297
vt 0.2891 0.9922
vt 0.2812 0.9922
vt 0.2734 1.0000
vt 0.2656 1.0000
vt 0.2734 0.9922
vt 0.2812 0.9922
vt 0.2812 1.0000
vt 0.2734 1.0000
vt 0.2578 0.9297
vt 0.2578 0.9922
vt 0.0078 0.9531
vt 0.0234 0.9531
vt 0.0234 0.9570
vt 0.0078 0.9570
vt 0.0312 0.9531
vt 0.0469 0.9531
vt 0.0469 0.9570
vt 0.0312 0.9570
vt 0.0234 0.9648
vt 0.0078 0.9648
vt 0.0234 0.9570
vt 0.0391 0.9570
vt 0.0391 0.9648
vt 0.0234 0.9648
vt 0.0000 0.9531
vt 0.0000 0.9570
vt 0.0156 0.9453
vt 0.0234 0.9453
vt 0.0234 0.9492
vt 0.0156 0.9492
vt 0.0391 0.9453
vt 0.0469 0.9453
vt 0.0469 0.9492
vt 0.0391 0.9492
vt 0.0234 0.9648
vt 0.0156 0.9648
vt 0.0234 0.9492
vt 0.0312 0.9492
vt 0.0312 0.9648
vt 0.0234 0.9648
vt 0.0000 0.9453
vt 0.0000 0.9492
vt 0.7188 0.6641
vt 0.7227 0.6641
vt 0.7227 0.6680
vt 0.7188 0.6680
vt 0.9102 0.6641
vt 0.9141 0.6641
vt 0.9141 0.6680
vt 0.9102 0.6680
vt 0.7227 0.8555
vt 0.7188 0.8555
vt 0.7227 0.6680
vt 0.7266 0.6680
vt 0.7266 0.8555
vt 0.7227 0.8555
vt 0.5312 0.6641
vt 0.5312 0.6680
vt 0.1797 0.8164
vt 0.1836 0.8164
vt 0.1836 0.8203
vt 0.1797 0.8203
vt 0.3633 0.8164
vt 0.3672 0.8164
vt 0.3672 0.8203
vt 0.3633 0.8203
vt 0.1836 1.0000
vt 0.1797 1.0000
vt 0.1836 0.8203
vt 0.1875 0.8203
vt 0.1875 1.0000
vt 0.1836 1.0000
vt 0.0000 0.8164
vt 0.0000 0.8203
vt 0.5117 0.5000
vt 0.5156 0.5000
vt 0.5156 0.5156
vt 0.5117 0.5156
vt 0.6875 0.5000
vt 0.6914 0.5000
vt 0.6914 0.5156
vt 0.6875 0.5156
vt 0.5156 0.6875
vt 0.5117 0.6875
vt 0.5156 0.5156
vt 0.5195 0.5156
vt 0.5195 0.6875
vt 0.5156 0.6875
vt 0.3398 0.5000
vt 0.3398 0.5156
vt 0.5117 0.5000
vt 0.5156 0.5000
vt 0.5156 0.5156
vt 0.5117 0.5156
vt 0.6875 0.5000
vt 0.6914 0.5000
vt 0.6914 0.5156
vt 0.6875 0.5156
vt 0.5156 0.6875
vt 0.5117 0.6875
vt 0.5156 0.5156
vt 0.5195 0.5156
vt 0.5195 0.6875
vt 0.5156 0.6875
vt 0.3398 0.5000
vt 0.3398 0.5156
vt 0.1641 0.5000
vt 0.1680 0.5000
vt 0.1680 0.5781
vt 0.1641 0.5781
vt 0.3320 0.5000
vt 0.3359 0.5000
vt 0.3359 0.5781
vt 0.3320 0.5781
vt 0.1680 0.7422
vt 0.1641 0.7422
vt 0.1680 0.5781
vt 0.1719 0.5781
vt 0.1719 0.7422
vt 0.1680 0.7422
vt 0.0000 0.5000
vt 0.0000 0.5781
vt 0.1797 0.8164
vt 0.1836 0.8164
vt 0.1836 0.8203
vt 0.1797 0.8203
vt 0.3633 0.8164
vt 0.3672 0.8164
vt 0.3672 0.8203
vt 0.3633 0.8203
vt 0.1836 1.0000
vt 0.1797 1.0000
vt 0.1836 0.8203
vt 0.1875 0.8203
vt 0.1875 1.0000
vt 0.1836 1.0000
vt 0.0000 0.8164
vt 0.0000 0.8203
vt 0.7188 0.6641
vt 0.7227 0.6641
vt 0.7227 0.6680
vt 0.7188 0.6680
vt 0.9102 0.6641
vt 0.9141 0.6641
vt 0.9141 0.6680
vt 0.9102 0.6680
vt 0.7227 0.8555
vt 0.7188 0.8555
vt 0.7227 0.6680
vt 0.7266 0.6680
vt 0.7266 0.8555
vt 0.7227 0.8555
vt 0.5312 0.6641
vt 0.5312 0.6680
vn 0.0000 0.0000 -1.0000
vn 0.0000 -0.0000 1.0000
vn 0.0000 1.0000 0.0000
vn 0.0000 -1.0000 -0.0000
vn 1.0000 0.0000 0.0000
vn -1.0000 0.0000 0.0000
usemtl sb
s off
f 1/1/1 2/2/1 3/3/1 4/4/1
f 5/5/2 6/6/2 7/7/2 8/8/2
f 4/4/3 3/3/3 8/9/3 7/10/3
f 6/11/4 5/12/4 2/13/4 1/14/4
f 6/15/5 1/1/5 4/4/5 7/16/5
f 2/2/6 5/5/6 8/8/6 3/3/6
f 9/17/1 10/18/1 11/19/1 12/20/1
f 13/21/2 14/22/2 15/23/2 16/24/2
f 12/20/3 11/19/3 16/25/3 15/26/3
f 14/27/4 13/28/4 10/29/4 9/30/4
f 14/31/5 9/17/5 12/20/5 15/32/5
f 10/18/6 13/21/6 16/24/6 11/19/6
f 17/33/1 18/34/1 19/35/1 20/36/1
f 21/37/2 22/38/2 23/39/2 24/40/2
f 20/36/3 19/35/3 24/41/3 23/42/3
f 22/43/4 21/44/4 18/45/4 17/46/4
f 22/47/5 17/33/5 20/36/5 23/48/5
f 18/34/6 21/37/6 24/40/6 19/35/6
f 25/49/1 26/50/1 27/51/1 28/52/1
f 29/53/2 30/54/2 31/55/2 32/56/2
f 28/52/3 27/51/3 32/57/3 31/58/3
f 30/59/4 29/60/4 26/61/4 25/62/4
f 30/63/5 25/49/5 28/52/5 31/64/5
f 26/50/6 29/53/6 32/56/6 27/51/6
f 33/65/1 34/66/1 35/67/1 36/68/1
f 37/69/2 38/70/2 39/71/2 40/72/2
f 36/68/3 35/67/3 40/73/3 39/74/3
f 38/75/4 37/76/4 34/77/4 33/78/4
f 38/79/5 33/65/5 36/68/5 39/80/5
f 34/66/6 37/69/6 40/72/6 35/67/6
f 41/81/1 42/82/1 43/83/1 44/84/1
f 45/85/2 46/86/2 47/87/2 48/88/2
f 44/84/3 43/83/3 48/89/3 47/90/3
f 46/91/4 45/92/4 42/93/4 41/94/4
f 46/95/5 41/81/5 44/84/5 47/96/5
f 42/82/6 45/85/6 48/88/6 43/83/6
f 49/97/1 50/98/1 51/99/1 52/100/1
f 53/101/2 54/102/2 55/103/2 56/104/2
f 52/100/3 51/99/3 56/105/3 55/106/3
f 54/107/4 53/108/4 50/109/4 49/110/4
f 54/111/5 49/97/5 52/100/5 55/112/5
f 50/98/6 53/101/6 56/104/6 51/99/6
f 57/113/1 58/114/1 59/115/1 60/116/1
f 61/117/2 62/118/2 63/119/2 64/120/2
f 60/116/3 59/115/3 64/121/3 63/122/3
f 62/123/4 61/124/4 58/125/4 57/126/4
f 62/127/5 57/113/5 60/116/5 63/128/5
f 58/114/6 61/117/6 64/120/6 59/115/6
f 65/129/1 66/130/1 67/131/1 68/132/1
f 69/133/2 70/134/2 71/135/2 72/136/2
f 68/132/3 67/131/3 72/137/3 71/138/3
f 70/139/4 69/140/4 66/141/4 65/142/4
f 70/143/5 65/129/5 68/132/5 71/144/5
f 66/130/6 69/133/6 72/136/6 67/131/6
f 73/145/1 74/146/1 75/147/1 76/148/1
f 77/149/2 78/150/2 79/151/2 80/152/2
f 76/148/3 75/147/3 80/153/3 79/154/3
f 78/155/4 77/156/4 74/157/4 73/158/4
f 78/159/5 73/145/5 76/148/5 79/160/5
f 74/146/6 77/149/6 80/152/6 75/147/6
f 81/161/1 82/162/1 83/163/1 84/164/1
f 85/165/2 86/166/2 87/167/2 88/168/2
f 84/164/3 83/163/3 88/169/3 87/170/3
f 86/171/4 85/172/4 82/173/4 81/174/4
f 86/175/5 81/161/5 84/164/5 87/176/5
f 82/162/6 85/165/6 88/168/6 83/163/6
f 89/177/1 90/178/1 91/179/1 92/180/1
f 93/181/2 94/182/2 95/183/2 96/184/2
f 92/180/3 91/179/3 96/185/3 95/186/3
f 94/187/4 93/188/4 90/189/4 89/190/4
f 94/191/5 89/177/5 92/180/5 95/192/5
f 90/178/6 93/181/6 96/184/6 91/179/6
f 97/193/1 98/194/1 99/195/1 100/196/1
f 101/197/2 102/198/2 103/199/2 104/200/2
f 100/196/3 99/195/3 104/201/3 103/202/3
f 102/203/4 101/204/4 98/205/4 97/206/4
f 102/207/5 97/193/5 100/196/5 103/208/5
f 98/194/6 101/197/6 104/200/6 99/195/6
f 105/209/1 106/210/1 107/211/1 108/212/1
f 109/213/2 110/214/2 111/215/2 112/216/2
f 108/212/3 107/211/3 112/217/3 111/218/3
f 110/219/4 109/220/4 106/221/4 105/222/4
f 110/223/5 105/209/5 108/212/5 111/224/5
f 106/210/6 109/213/6 112/216/6 107/211/6
f 113/225/1 114/226/1 115/227/1 116/228/1
f 117/229/2 118/230/2 119/231/2 120/232/2
f 116/228/3 115/227/3 120/233/3 119/234/3
f 118/235/4 117/236/4 114/237/4 113/238/4
f 118/239/5 113/225/5 116/228/5 119/240/5
f 114/226/6 117/229/6 120/232/6 115/227/6
f 121/241/1 122/242/1 123/243/1 124/244/1
f 125/245/2 126/246/2 127/247/2 128/248/2
f 124/244/3 123/243/3 128/249/3 127/250/3
f 126/251/4 125/252/4 122/253/4 121/254/4
f 126/255/5 121/241/5 124/244/5 127/256/5
f 122/242/6 125/245/6 128/248/6 123/243/6
f 129/257/1 130/258/1 131/259/1 132/260/1
f 133/261/2 134/262/2 135/263/2 136/264/2
f 132/260/3 131/259/3 136/265/3 135/266/3
f 134/267/4 133/268/4 130/269/4 129/270/4
f 134/271/5 129/257/5 132/260/5 135/272/5
f 130/258/6 133/261/6 136/264/6 131/259/6
f 137/273/1 138/274/1 139/275/1 140/276/1
f 141/277/2 142/278/2 143/279/2 144/280/2
f 140/276/3 139/275/3 144/281/3 143/282/3
f 142/283/4 141/284/4 138/285/4 137/286/4
f 142/287/5 137/273/5 140/276/5 143/288/5
f 138/274/6 141/277/6 144/280/6 139/275/6
f 145/289/1 146/290/1 147/291/1 148/292/1
f 149/293/2 150/294/2 151/295/2 152/296/2
f 148/292/3 147/291/3 152/297/3 151/298/3
f 150/299/4 149/300/4 146/301/4 145/302/4
f 150/303/5 145/289/5 148/292/5 151/304/5
f 146/290/6 149/293/6 152/296/6 147/291/6
f 153/305/1 154/306/1 155/307/1 156/308/1
f 157/309/2 158/310/2 159/311/2 160/312/2
f 156/308/3 155/307/3 160/313/3 159/314/3
f 158/315/4 157/316/4 154/317/4 153/318/4
f 158/319/5 153/305/5 156/308/5 159/320/5
f 154/306/6 157/309/6 160/312/6 155/307/6
f 161/321/1 162/322/1 163/323/1 164/324/1
f 165/325/2 166/326/2 167/327/2 168/328/2
f 164/324/3 163/323/3 168/329/3 167/330/3
f 166/331/4 165/332/4 162/333/4 161/334/4
f 166/335/5 161/321/5 164/324/5 167/336/5
f 162/322/6 165/325/6 168/328/6 163/323/6
f 169/337/1 170/338/1 171/339/1 172/340/1
f 173/341/2 174/342/2 175/343/2 176/344/2
f 172/340/3 171/339/3 176/345/3 175/346/3
f 174/347/4 173/348/4 170/349/4 169/350/4
f 174/351/5 169/337/5 172/340/5 175/352/5
f 170/338/6 173/341/6 176/344/6 171/339/6
f 177/353/1 178/354/1 179/355/1 180/356/1
f 181/357/2 182/358/2 183/359/2 184/360/2
f 180/356/3 179/355/3 184/361/3 183/362/3
f 182/363/4 181/364/4 178/365/4 177/366/4
f 182/367/5 177/353/5 180/356/5 183/368/5
f 178/354/6 181/357/6 184/360/6 179/355/6
f 185/369/1 186/370/1 187/371/1 188/372/1
f 189/373/2 190/374/2 191/375/2 192/376/2
f 188/372/3 187/371/3 192/377/3 191/378/3
f 190/379/4 189/380/4 186/381/4 185/382/4
f 190/383/5 185/369/5 188/372/5 191/384/5
f 186/370/6 189/373/6 192/376/6 187/371/6
f 193/385/1 194/386/1 195/387/1 196/388/1
f 197/389/2 198/390/2 199/391/2 200/392/2
f 196/388/3 195/387/3 200/393/3 199/394/3
f 198/395/4 197/396/4 194/397/4 193/398/4
f 198/399/5 193/385/5 196/388/5 199/400/5
f 194/386/6 197/389/6 200/392/6 195/387/6
f 201/401/1 202/402/1 203/403/1 204/404/1
f 205/405/2 206/406/2 207/407/2 208/408/2
f 204/404/3 203/403/3 208/409/3 207/410/3
f 206/411/4 205/412/4 202/413/4 201/414/4
f 206/415/5 201/401/5 204/404/5 207/416/5
f 202/402/6 205/405/6 208/408/6 203/403/6
f 209/417/1 210/418/1 211/419/1 212/420/1
f 213/421/2 214/422/2 215/423/2 216/424/2
f 212/420/3 211/419/3 216/425/3 215/426/3
f 214/427/4 213/428/4 210/429/4 209/430/4
f 214/431/5 209/417/5 212/420/5 215/432/5
f 210/418/6 213/421/6 216/424/6 211/419/6
f 217/433/1 218/434/1 219/435/1 220/436/1
f 221/437/2 222/438/2 223/439/2 224/440/2
f 220/436/3 219/435/3 224/441/3 223/442/3
f 222/443/4 221/444/4 218/445/4 217/446/4
f 222/447/5 217/433/5 220/436/5 223/448/5
f 218/434/6 221/437/6 224/440/6 219/435/6
f 225/449/1 226/450/1 227/451/1 228/452/1
f 229/453/2 230/454/2 231/455/2 232/456/2
f 228/452/3 227/451/3 232/457/3 231/458/3
f 230/459/4 229/460/4 226/461/4 225/462/4
f 230/463/5 225/449/5 228/452/5 231/464/5
f 226/450/6 229/453/6 232/456/6 227/451/6
f 233/465/1 234/466/1 235/467/1 236/468/1
f 237/469/2 238/470/2 239/471/2 240/472/2
f 236/468/3 235/467/3 240/473/3 239/474/3
f 238/475/4 237/476/4 234/477/4 233/478/4
f 238/479/5 233/465/5 236/468/5 239/480/5
f 234/466/6 237/469/6 240/472/6 235/467/6
